<?xml version="1.0" encoding="UTF-8" standalone="no"?>
<svg
   xmlns:dc="http://purl.org/dc/elements/1.1/"
   xmlns:cc="http://creativecommons.org/ns#"
   xmlns:rdf="http://www.w3.org/1999/02/22-rdf-syntax-ns#"
   xmlns:svg="http://www.w3.org/2000/svg"
   xmlns="http://www.w3.org/2000/svg"
   xmlns:sodipodi="http://sodipodi.sourceforge.net/DTD/sodipodi-0.dtd"
   xmlns:inkscape="http://www.inkscape.org/namespaces/inkscape"
   height="90.680481"
   width="90.680481"
   version="1.1"
   x="0px"
   y="0px"
   viewBox="0 0 232.61992 300.39451"
   style="fill:#000000"
   xml:space="preserve"
   id="svg18"
   sodipodi:docname="bodyworkplans3.svg"
   inkscape:version="0.92.2 5c3e80d, 2017-08-06"><metadata
     id="metadata24"><rdf:RDF><cc:Work
         rdf:about=""><dc:format>image/svg+xml</dc:format><dc:type
           rdf:resource="http://purl.org/dc/dcmitype/StillImage" /><dc:title></dc:title></cc:Work></rdf:RDF></metadata><defs
     id="defs22" /><sodipodi:namedview
     pagecolor="#ffffff"
     bordercolor="#666666"
     borderopacity="1"
     objecttolerance="10"
     gridtolerance="10"
     guidetolerance="10"
     inkscape:pageopacity="0"
     inkscape:pageshadow="2"
     inkscape:window-width="1177"
     inkscape:window-height="747"
     id="namedview20"
     showgrid="false"
     showguides="true"
     inkscape:guide-bbox="true"
     inkscape:pagecheckerboard="true"
     inkscape:zoom="5.8888086"
     inkscape:cx="46.391569"
     inkscape:cy="45.340238"
     inkscape:window-x="0"
     inkscape:window-y="0"
     inkscape:window-maximized="0"
     inkscape:current-layer="g16"
     fit-margin-top="0"
     fit-margin-left="0"
     fit-margin-right="0"
     fit-margin-bottom="0"><sodipodi:guide
       position="119.68626,178.42658"
       orientation="1,0"
       id="guide836"
       inkscape:locked="false" /><sodipodi:guide
       position="119.68626,141.42417"
       orientation="0,1"
       id="guide840"
       inkscape:locked="false" /><sodipodi:guide
       position="16.912247,214.78467"
       orientation="0,1"
       id="guide936"
       inkscape:locked="false" /><sodipodi:guide
       position="17.326998,206.796"
       orientation="0,1"
       id="guide938"
       inkscape:locked="false" /></sodipodi:namedview><g
     id="g16"
     transform="translate(-11.076245,59.312546)"><circle
       style="fill:#ffa958;fill-opacity:1;stroke:none;stroke-width:3.31788659;stroke-miterlimit:4;stroke-dasharray:none;stroke-opacity:1"
       id="path838"
       cx="127.3862"
       cy="90.884705"
       r="150.19725" /><path
       d="M 132.933,0.591 C 120.833,-2.225 108.74,5.3 105.921,17.4 c -0.54,2.321 -0.697,4.643 -0.517,6.898 h 44.851 C 151.145,13.373 143.93,3.152 132.933,0.591 Z"
       id="path2"
       inkscape:connector-curvature="0" /><path
       d="m 145.598,36.298 h -35.529 c 2.605,3.359 6.171,6.003 10.411,7.463 h 14.694 c 4.102,-1.421 7.739,-4.01 10.424,-7.463 z"
       id="path4"
       inkscape:connector-curvature="0" /><path
       style="stroke-width:0.3018713"
       d="m 72.878906,25.84375 c 0.04045,0.382169 0.01817,0.770618 -0.07813,1.154297 -0.107768,0.431072 -0.219876,0.850127 -0.333984,1.259765 h 2.140625 v -0.0039 h 8.666016 V 25.84375 h -1.587891 -5.710938 -1.6875 z"
       id="path6"
       inkscape:connector-curvature="0"
       transform="matrix(3.31267,0,0,3.31267,-19.328345,-59.312546)" /><path
       style="stroke-width:0.3018713"
       d="m 5.8359375,25.84375 v 2.410156 h 9.2167965 v 0.0039 h 1.591797 C 16.52982,27.847872 16.416664,27.43077 16.308594,27 16.210784,26.610586 16.19197,26.221391 16.232422,25.84375 h -1.0625 -2.03711 -5.7089839 z"
       id="path8"
       inkscape:connector-curvature="0"
       transform="matrix(3.31267,0,0,3.31267,-19.328345,-59.312546)" /><path
       d="M 105.654,26.298 H 56.42 c 0.741,2.835 1.537,5.507 2.381,8 h 49.88 38.304 50.738 c 0.804,-2.373 1.601,-5.031 2.373,-8 h -50.095 z"
       id="path10"
       inkscape:connector-curvature="0" /><path
       d="m 144.299,196.171 c 4.572,0 9.031,-2.321 11.568,-6.519 3.229,-5.345 2.305,-12.023 -1.822,-16.321 l -12.327,22.588 c 0.856,0.166 1.72,0.252 2.581,0.252 z"
       id="path12"
       inkscape:connector-curvature="0" /><path
       d="m 121.814,153.304 2.89,-16.911 0.636,-3.724 h 4.98 l 3.07,17.966 -3.966,7.267 -12.946,23.724 -8.682,15.908 c -3.572,6.546 -1.166,14.745 5.381,18.317 2.055,1.121 4.271,1.653 6.457,1.653 4.779,0 9.41,-2.543 11.861,-7.035 l 8.241,-15.1 12.78,-23.417 6.822,-12.499 c 1.469,-2.689 1.973,-5.724 1.457,-8.744 l -7.465,-43.683 8.678,-36.979 c 4.879,2.976 11.225,5.773 18.928,5.838 0.023,0 0.047,0 0.07,0 3.82,0 7.922,-0.801 11.854,-2.65 5.967,-2.784 11.309,-7.795 15.754,-14.897 3.619,-5.78 6.762,-12.987 9.458,-22.041 0.196,-0.656 0.389,-1.324 0.579,-2 0.425,-1.504 0.839,-3.054 1.24,-4.657 0.282,-1.127 0.329,-2.256 0.188,-3.343 -0.09,-0.688 -0.255,-1.359 -0.496,-2 -1.006,-2.673 -3.26,-4.826 -6.24,-5.571 -4.482,-1.12 -9.02,1.341 -10.604,5.571 -0.119,0.317 -0.226,0.642 -0.31,0.979 -0.087,0.35 -0.177,0.679 -0.264,1.021 -0.745,2.909 -1.525,5.571 -2.33,8 -0.227,0.686 -0.455,1.352 -0.686,2 -2.888,8.139 -6.013,13.44 -8.785,16.556 -1.936,2.192 -3.641,3.377 -5.131,4.08 -1.496,0.689 -2.832,0.943 -4.297,0.953 -3.432,0.077 -7.918,-1.914 -11.393,-4.391 -1.73,-1.208 -3.189,-2.453 -4.174,-3.363 -0.488,-0.452 -0.859,-0.82 -1.09,-1.055 -0.117,-0.117 -0.199,-0.2 -0.238,-0.247 l -0.01,-0.01 c -2.084,-2.297 -5.084,-3.269 -7.939,-2.865 -0.596,-0.121 -1.207,-0.196 -1.834,-0.196 h -52.855 c -0.523,0 -1.033,0.059 -1.535,0.144 -2.682,-0.209 -5.428,0.772 -7.373,2.921 v -0.003 l -0.01,0.01 c -0.309,0.338 -2.795,2.885 -6.166,5.113 -3.377,2.286 -7.512,4.003 -10.73,3.942 -1.465,-0.01 -2.799,-0.264 -4.299,-0.953 -2.205,-1.041 -5.018,-3.224 -8.133,-8.163 -1.928,-3.06 -3.907,-7.162 -5.788,-12.473 -0.229,-0.647 -0.456,-1.316 -0.682,-2 -0.804,-2.43 -1.584,-5.095 -2.33,-8 -0.088,-0.341 -0.176,-0.675 -0.263,-1.021 -0.084,-0.337 -0.19,-0.661 -0.309,-0.979 -1.582,-4.23 -6.12,-6.691 -10.605,-5.571 -2.979,0.746 -5.234,2.899 -6.24,5.571 -0.241,0.641 -0.406,1.312 -0.496,2 -0.142,1.087 -0.094,2.218 0.189,3.346 0.404,1.606 0.822,3.147 1.248,4.654 0.191,0.676 0.384,1.344 0.579,2 3.806,12.771 8.476,21.904 14.181,28.44 3.326,3.788 7.063,6.649 11.024,8.497 3.932,1.85 8.033,2.65 11.853,2.65 0.025,0 0.049,0 0.07,0 7.313,-0.061 13.396,-2.585 18.17,-5.385 l 8.57,36.518 -8.602,50.347 -0.078,0.459 c -0.006,0.036 -0.007,0.072 -0.013,0.108 -0.052,0.314 -0.084,0.626 -0.112,0.938 -0.014,0.145 -0.032,0.288 -0.041,0.433 -0.016,0.267 -0.014,0.53 -0.015,0.795 0.001,0.19 -0.007,0.381 0.002,0.571 0.008,0.203 0.032,0.402 0.05,0.604 0.021,0.244 0.037,0.488 0.072,0.73 0.021,0.152 0.056,0.3 0.083,0.451 0.05,0.279 0.097,0.559 0.164,0.834 0.035,0.146 0.083,0.285 0.123,0.429 0.075,0.27 0.148,0.541 0.24,0.807 0.067,0.193 0.149,0.381 0.226,0.57 0.081,0.205 0.157,0.412 0.248,0.612 0.123,0.267 0.263,0.526 0.402,0.786 0.062,0.114 0.116,0.233 0.181,0.347 0.172,0.297 0.361,0.584 0.555,0.867 0.048,0.071 0.091,0.145 0.141,0.216 0.191,0.27 0.399,0.525 0.61,0.78 0.068,0.082 0.13,0.169 0.201,0.25 0.181,0.209 0.377,0.404 0.57,0.602 0.12,0.122 0.234,0.248 0.359,0.366 0.153,0.145 0.318,0.277 0.479,0.415 0.186,0.16 0.369,0.321 0.565,0.472 0.124,0.096 0.255,0.182 0.383,0.272 0.247,0.176 0.495,0.351 0.758,0.512 0.032,0.02 0.061,0.043 0.093,0.063 l 14.789,8.936 12.945,-23.725 z"
       id="path14"
       inkscape:connector-curvature="0" /><path
       style="fill:#000000;fill-opacity:0.97979796;stroke:none;stroke-width:1.00157475;stroke-miterlimit:4;stroke-dasharray:none;stroke-opacity:1"
       d="M 3.4179688,25.84375 A 45.340239,45.340239 0 0 0 2.3203125,28.257812 H 7.4238281 V 25.84375 Z"
       id="rect940"
       inkscape:connector-curvature="0"
       transform="matrix(3.31267,0,0,3.31267,-19.328345,-59.312546)" /><path
       style="fill:#000000;fill-opacity:0.97979796;stroke:none;stroke-width:1.00157475;stroke-miterlimit:4;stroke-dasharray:none;stroke-opacity:1"
       d="m 81.685547,25.84375 v 2.414062 h 4.568359 A 45.340239,45.340239 0 0 0 85.175781,25.84375 Z"
       id="rect942"
       inkscape:connector-curvature="0"
       transform="matrix(3.31267,0,0,3.31267,-19.328345,-59.312546)" /></g></svg>